<svg id="Capa_1" data-name="Capa 1" xmlns="http://www.w3.org/2000/svg" xmlns:xlink="http://www.w3.org/1999/xlink" viewBox="0 0 92.61 114.01"><defs><style>.cls-1{fill:none;clip-rule:evenodd;}.cls-10,.cls-100,.cls-101,.cls-102,.cls-103,.cls-104,.cls-105,.cls-106,.cls-107,.cls-108,.cls-109,.cls-11,.cls-110,.cls-111,.cls-112,.cls-113,.cls-114,.cls-115,.cls-116,.cls-117,.cls-118,.cls-119,.cls-12,.cls-120,.cls-121,.cls-122,.cls-123,.cls-124,.cls-125,.cls-126,.cls-127,.cls-128,.cls-129,.cls-13,.cls-130,.cls-131,.cls-132,.cls-133,.cls-134,.cls-135,.cls-136,.cls-137,.cls-138,.cls-139,.cls-14,.cls-140,.cls-141,.cls-142,.cls-143,.cls-144,.cls-145,.cls-146,.cls-147,.cls-148,.cls-149,.cls-15,.cls-150,.cls-151,.cls-152,.cls-153,.cls-154,.cls-155,.cls-156,.cls-157,.cls-158,.cls-159,.cls-16,.cls-160,.cls-161,.cls-162,.cls-163,.cls-164,.cls-165,.cls-166,.cls-167,.cls-168,.cls-169,.cls-17,.cls-170,.cls-171,.cls-172,.cls-173,.cls-174,.cls-175,.cls-176,.cls-177,.cls-178,.cls-179,.cls-18,.cls-180,.cls-181,.cls-182,.cls-183,.cls-184,.cls-185,.cls-186,.cls-187,.cls-188,.cls-189,.cls-19,.cls-190,.cls-191,.cls-192,.cls-2,.cls-20,.cls-21,.cls-22,.cls-23,.cls-24,.cls-25,.cls-26,.cls-27,.cls-28,.cls-29,.cls-30,.cls-31,.cls-32,.cls-33,.cls-34,.cls-35,.cls-36,.cls-37,.cls-38,.cls-39,.cls-4,.cls-40,.cls-41,.cls-42,.cls-43,.cls-44,.cls-45,.cls-46,.cls-47,.cls-48,.cls-49,.cls-50,.cls-51,.cls-52,.cls-53,.cls-54,.cls-55,.cls-56,.cls-57,.cls-58,.cls-59,.cls-6,.cls-60,.cls-61,.cls-62,.cls-63,.cls-64,.cls-65,.cls-66,.cls-67,.cls-68,.cls-69,.cls-7,.cls-70,.cls-71,.cls-72,.cls-73,.cls-74,.cls-75,.cls-76,.cls-77,.cls-78,.cls-79,.cls-8,.cls-80,.cls-81,.cls-82,.cls-83,.cls-84,.cls-85,.cls-86,.cls-87,.cls-88,.cls-89,.cls-9,.cls-90,.cls-91,.cls-92,.cls-93,.cls-94,.cls-95,.cls-96,.cls-97,.cls-98,.cls-99{fill-rule:evenodd;}.cls-2{fill:url(#Degradado_sin_nombre_6);}.cls-3,.cls-4{fill:#496b26;}.cls-5{clip-path:url(#clip-path);}.cls-6{fill:#f3a71e;}.cls-7{fill:#f3a821;}.cls-8{fill:#f3a923;}.cls-9{fill:#f3aa27;}.cls-10{fill:#f3ab27;}.cls-11{fill:#f3ab29;}.cls-12{fill:#f4ac2a;}.cls-13{fill:#f4ac2c;}.cls-14{fill:#f4ad2c;}.cls-15{fill:#f4ad2e;}.cls-16{fill:#f4ae2f;}.cls-17{fill:#f4af31;}.cls-18{fill:#f4af33;}.cls-19{fill:#f5b134;}.cls-20{fill:#f5b136;}.cls-21{fill:#f5b237;}.cls-22{fill:#f5b239;}.cls-23{fill:#f5b23a;}.cls-24{fill:#f5b23b;}.cls-25{fill:#f5b33d;}.cls-26{fill:#f5b43e;}.cls-27{fill:#f5b33f;}.cls-28{fill:#f5b540;}.cls-29{fill:#f5b542;}.cls-30{fill:#f5b644;}.cls-31{fill:#f5b645;}.cls-32{fill:#f6b745;}.cls-33{fill:#f5b746;}.cls-34{fill:#f5b747;}.cls-35{fill:#f6b849;}.cls-36{fill:#f6b84a;}.cls-37{fill:#f6b84b;}.cls-38{fill:#f6b94c;}.cls-39{fill:#f6b94e;}.cls-40{fill:#f6ba4f;}.cls-41{fill:#f6ba50;}.cls-42{fill:#f6ba51;}.cls-43{fill:#f6bc52;}.cls-44{fill:#f6bc53;}.cls-45{fill:#f6bc54;}.cls-46{fill:#f6bc55;}.cls-47{fill:#f6bc56;}.cls-48{fill:#f6bd56;}.cls-49{fill:#f6bd58;}.cls-50{fill:#f6bd59;}.cls-51{fill:#f7be5a;}.cls-52{fill:#f7be5b;}.cls-53{fill:#f7be5c;}.cls-54{fill:#f7bf5d;}.cls-55{fill:#f7bf5e;}.cls-56{fill:#f7bf5f;}.cls-57{fill:#f7c15f;}.cls-58{fill:#f7c060;}.cls-59{fill:#f7c061;}.cls-60{fill:#f7c162;}.cls-61{fill:#f7c163;}.cls-62{fill:#f7c165;}.cls-63{fill:#f7c266;}.cls-64{fill:#f7c269;}.cls-65{fill:#f7c369;}.cls-66{fill:#f7c36a;}.cls-67{fill:#f7c46b;}.cls-68{fill:#f7c46d;}.cls-69{fill:#f8c66e;}.cls-70{fill:#f8c670;}.cls-71{fill:#f8c671;}.cls-72{fill:#f8c772;}.cls-73{fill:#f8c773;}.cls-74{fill:#f8c775;}.cls-75{fill:#f8c874;}.cls-76{fill:#f8c875;}.cls-77{fill:#f8c876;}.cls-78{fill:#f8c977;}.cls-79{fill:#f8c978;}.cls-80{fill:#f8c979;}.cls-81{fill:#f8ca7a;}.cls-82{fill:#f8ca7c;}.cls-83{fill:#f9cb7d;}.cls-84{fill:#f9cb7f;}.cls-85{fill:#f9cb80;}.cls-86{fill:#f9cd80;}.cls-87{fill:#f9cc80;}.cls-88{fill:#f9cc81;}.cls-89{fill:#f9ce82;}.cls-90{fill:#f9ce84;}.cls-91{fill:#f9cf86;}.cls-92{fill:#f9cf87;}.cls-93{fill:#f9cf88;}.cls-94{fill:#f9d089;}.cls-95{fill:#f9d08a;}.cls-96{fill:#f9d08b;}.cls-97{fill:#f9d08c;}.cls-98{fill:#f9d18d;}.cls-99{fill:#f9d28e;}.cls-100{fill:#f9d28f;}.cls-101{fill:#fad391;}.cls-102{fill:#f9d393;}.cls-103{fill:#fad495;}.cls-104{fill:#fad596;}.cls-105{fill:#fad697;}.cls-106{fill:#fad698;}.cls-107{fill:#fad69a;}.cls-108{fill:#fad699;}.cls-109{fill:#fad79c;}.cls-110{fill:#fad89d;}.cls-111{fill:#fad89e;}.cls-112{fill:#fad89f;}.cls-113{fill:#fad9a0;}.cls-114{fill:#fad9a1;}.cls-115{fill:#fad9a3;}.cls-116{fill:#fadaa3;}.cls-117{fill:#fadaa5;}.cls-118{fill:#fadca7;}.cls-119{fill:#fadba7;}.cls-120{fill:#fadca9;}.cls-121{fill:#fadcaa;}.cls-122{fill:#faddab;}.cls-123{fill:#faddac;}.cls-124{fill:#faddad;}.cls-125{fill:#faddae;}.cls-126{fill:#fadeae;}.cls-127{fill:#fadeb0;}.cls-128{fill:#fadeb2;}.cls-129{fill:#fadfb2;}.cls-130{fill:#fadfb4;}.cls-131{fill:#fbe0b4;}.cls-132{fill:#fae0b5;}.cls-133{fill:#fae0b7;}.cls-134{fill:#fbe2b7;}.cls-135{fill:#fbe2b8;}.cls-136{fill:#fae1b9;}.cls-137{fill:#fbe2ba;}.cls-138{fill:#fbe3bc;}.cls-139{fill:#fbe3bd;}.cls-140{fill:#fbe3be;}.cls-141{fill:#fbe4c0;}.cls-142{fill:#fbe5c0;}.cls-143{fill:#fbe4c2;}.cls-144{fill:#fbe6c4;}.cls-145{fill:#fbe6c5;}.cls-146{fill:#fbe7c6;}.cls-147{fill:#fbe7c7;}.cls-148{fill:#fbe7c9;}.cls-149{fill:#fbe8c9;}.cls-150{fill:#fbe9cb;}.cls-151{fill:#fbe9cc;}.cls-152{fill:#fceacd;}.cls-153{fill:#fceace;}.cls-154{fill:#fbeace;}.cls-155{fill:#fcebd0;}.cls-156{fill:#fcebd2;}.cls-157{fill:#fcecd2;}.cls-158{fill:#fcedd3;}.cls-159{fill:#fcecd4;}.cls-160{fill:#fcecd6;}.cls-161{fill:#fcedd5;}.cls-162{fill:#fceed8;}.cls-163{fill:#fceed9;}.cls-164{fill:#fcefd9;}.cls-165{fill:#fcefdb;}.cls-166{fill:#fcf0dc;}.cls-167{fill:#fcf0dd;}.cls-168{fill:#fcf0de;}.cls-169{fill:#fcf1df;}.cls-170{fill:#fcf2e0;}.cls-171{fill:#fcf2e2;}.cls-172{fill:#fcf2e3;}.cls-173{fill:#fdf4e4;}.cls-174{fill:#fdf4e6;}.cls-175{fill:#fdf4e8;}.cls-176{fill:#fdf5e8;}.cls-177{fill:#fdf5e9;}.cls-178{fill:#fdf5eb;}.cls-179{fill:#fdf6eb;}.cls-180{fill:#fdf7ed;}.cls-181{fill:#fdf7ee;}.cls-182{fill:#fdf8f0;}.cls-183{fill:#fdf9f2;}.cls-184{fill:#fdfaf4;}.cls-185{fill:#fdfbf5;}.cls-186{fill:#fdfbf6;}.cls-187{fill:#fdfbf7;}.cls-188{fill:#fffdfa;}.cls-189{fill:#fffdfb;}.cls-190{fill:#fdfdfc;}.cls-191{fill:#1f140f;opacity:0.3;}.cls-192{fill:#fff;}.cls-193{fill:#008f3f;}.cls-194{fill:#4c8935;}.cls-195{font-size:8.6px;font-family:HelveticaLTStd-Comp, Helvetica LT Std;}</style><linearGradient id="Degradado_sin_nombre_6" x1="50.21" y1="74.98" x2="49.78" y2="31.18" gradientUnits="userSpaceOnUse"><stop offset="0" stop-color="#fff"/><stop offset="1" stop-color="#008f30"/></linearGradient><clipPath id="clip-path" transform="translate(-3.7 -4.37)"><path class="cls-1" d="M30.47,64.28V43.92l6.46.06L41.64,52,46.16,44h1.13v0H60.05c2.48,0,5.57.33,7.48,2,4.45,3.83,4,13-.8,17-1.49,1.24-4.73,1.4-6.68,1.4-4.64,0-9.26.1-13.89,0v-11l-4.71,7.58-4.52-7v10.4ZM58.74,49.19V59.28l2.67.09c3.64.12,4-10,0-10.09Z"/></clipPath></defs><title>logo-ciudadv</title><path class="cls-2" d="M25.58,33.34H74.42A2.6,2.6,0,0,1,77,36V71.5a2.59,2.59,0,0,1-2.56,2.61H25.58A2.59,2.59,0,0,1,23,71.5V36a2.6,2.6,0,0,1,2.56-2.62Z" transform="translate(-3.7 -4.37)"/><path class="cls-3" d="M25.58,33.22H74.42a2.68,2.68,0,0,1,1.9.8h0A2.78,2.78,0,0,1,77.1,36h0V71.5h0a2.76,2.76,0,0,1-.78,1.93,2.64,2.64,0,0,1-1.89.8H25.57a2.64,2.64,0,0,1-1.89-.8h0a2.82,2.82,0,0,1-.79-1.93h0V36h0A2.79,2.79,0,0,1,23.68,34a2.68,2.68,0,0,1,1.89-.8h0Zm48.84.24H25.57a2.4,2.4,0,0,0-1.71.73A2.53,2.53,0,0,0,23.14,36h0V71.5h0a2.53,2.53,0,0,0,.72,1.76h0a2.4,2.4,0,0,0,1.71.73H74.43a2.4,2.4,0,0,0,1.71-.73,2.53,2.53,0,0,0,.72-1.76h0V36h0a2.53,2.53,0,0,0-.72-1.76h0a2.4,2.4,0,0,0-1.72-.73Z" transform="translate(-3.7 -4.37)"/><path class="cls-4" d="M28.46,66.43V46.06l6.46.06,4.72,8.06,4.51-8.06h1.14v0H58.05c2.47,0,5.56.33,7.48,2,4.44,3.83,4,13-.8,17-1.49,1.23-4.74,1.4-6.68,1.4-4.64,0-9.26.09-13.9,0v-11l-4.7,7.58-4.53-7v10.4Zm28.28-15.1v10.1l2.67.08c3.63.13,4-10,0-10.09Z" transform="translate(-3.7 -4.37)"/><g class="cls-5"><polygon class="cls-6" points="26.59 39.5 68.23 39.14 68.23 39.3 26.59 39.67 26.59 39.5"/><polygon class="cls-6" points="26.59 39.59 68.23 39.22 68.23 39.39 26.59 39.76 26.59 39.59"/><polygon class="cls-6" points="26.59 39.67 68.23 39.3 68.23 39.47 26.59 39.84 26.59 39.67"/><polygon class="cls-7" points="26.59 39.76 68.23 39.39 68.23 39.56 26.59 39.92 26.59 39.76"/><polygon class="cls-7" points="26.59 39.84 68.23 39.47 68.23 39.64 26.59 40.01 26.59 39.84"/><polygon class="cls-7" points="26.59 39.92 68.23 39.56 68.23 39.72 26.6 40.09 26.59 39.92"/><polygon class="cls-8" points="26.59 40.01 68.23 39.64 68.23 39.81 26.6 40.18 26.59 40.01"/><polygon class="cls-8" points="26.6 40.09 68.23 39.72 68.23 39.89 26.6 40.26 26.6 40.09"/><polygon class="cls-8" points="26.6 40.18 68.23 39.81 68.23 39.98 26.6 40.34 26.6 40.18"/><polygon class="cls-8" points="26.6 40.26 68.23 39.89 68.23 40.06 26.6 40.43 26.6 40.26"/><polygon class="cls-9" points="26.6 40.34 68.23 39.98 68.23 40.14 26.6 40.51 26.6 40.34"/><polygon class="cls-9" points="26.6 40.43 68.23 40.06 68.24 40.23 26.6 40.6 26.6 40.43"/><polygon class="cls-10" points="26.6 40.51 68.23 40.14 68.24 40.31 26.6 40.68 26.6 40.51"/><polygon class="cls-10" points="26.6 40.6 68.24 40.23 68.24 40.4 26.6 40.76 26.6 40.6"/><polygon class="cls-11" points="26.6 40.68 68.24 40.31 68.24 40.48 26.6 40.85 26.6 40.68"/><polygon class="cls-11" points="26.6 40.76 68.24 40.4 68.24 40.56 26.6 40.93 26.6 40.76"/><polygon class="cls-12" points="26.6 40.85 68.24 40.48 68.24 40.65 26.6 41.02 26.6 40.85"/><polygon class="cls-12" points="26.6 40.93 68.24 40.56 68.24 40.73 26.6 41.1 26.6 40.93"/><polygon class="cls-13" points="26.6 41.02 68.24 40.65 68.24 40.81 26.6 41.18 26.6 41.02"/><polygon class="cls-14" points="26.6 41.1 68.24 40.73 68.24 40.9 26.61 41.27 26.6 41.1"/><polygon class="cls-14" points="26.6 41.18 68.24 40.81 68.25 40.98 26.61 41.35 26.6 41.18"/><polygon class="cls-15" points="26.61 41.27 68.24 40.9 68.25 41.07 26.61 41.43 26.61 41.27"/><polygon class="cls-16" points="26.61 41.35 68.25 40.98 68.25 41.15 26.61 41.52 26.61 41.35"/><polygon class="cls-16" points="26.61 41.43 68.25 41.07 68.25 41.23 26.61 41.6 26.61 41.43"/><polygon class="cls-16" points="26.61 41.52 68.25 41.15 68.25 41.32 26.61 41.69 26.61 41.52"/><polygon class="cls-17" points="26.61 41.6 68.25 41.23 68.25 41.4 26.61 41.77 26.61 41.6"/><polygon class="cls-17" points="26.61 41.69 68.25 41.32 68.25 41.48 26.61 41.85 26.61 41.69"/><polygon class="cls-18" points="26.61 41.77 68.25 41.4 68.25 41.57 26.61 41.94 26.61 41.77"/><polygon class="cls-19" points="26.61 41.85 68.25 41.48 68.25 41.65 26.61 42.02 26.61 41.85"/><polygon class="cls-19" points="26.61 41.94 68.25 41.57 68.25 41.74 26.61 42.11 26.61 41.94"/><polygon class="cls-20" points="26.61 42.02 68.25 41.65 68.25 41.82 26.61 42.19 26.61 42.02"/><polygon class="cls-20" points="26.61 42.11 68.25 41.74 68.25 41.91 26.61 42.27 26.61 42.11"/><polygon class="cls-21" points="26.61 42.19 68.25 41.82 68.25 41.99 26.61 42.36 26.61 42.19"/><polygon class="cls-22" points="26.61 42.27 68.25 41.91 68.25 42.07 26.62 42.44 26.61 42.27"/><polygon class="cls-23" points="26.61 42.36 68.25 41.99 68.25 42.16 26.62 42.53 26.61 42.36"/><polygon class="cls-23" points="26.62 42.44 68.25 42.07 68.25 42.24 26.62 42.61 26.62 42.44"/><polygon class="cls-24" points="26.62 42.53 68.25 42.16 68.25 42.33 26.62 42.69 26.62 42.53"/><polygon class="cls-24" points="26.62 42.61 68.25 42.24 68.25 42.41 26.62 42.78 26.62 42.61"/><polygon class="cls-25" points="26.62 42.69 68.25 42.33 68.25 42.49 26.62 42.86 26.62 42.69"/><polygon class="cls-26" points="26.62 42.78 68.25 42.41 68.26 42.58 26.62 42.95 26.62 42.78"/><polygon class="cls-27" points="26.62 42.86 68.25 42.49 68.26 42.66 26.62 43.03 26.62 42.86"/><polygon class="cls-28" points="26.62 42.95 68.26 42.58 68.26 42.74 26.62 43.11 26.62 42.95"/><polygon class="cls-28" points="26.62 43.03 68.26 42.66 68.26 42.83 26.62 43.2 26.62 43.03"/><polygon class="cls-28" points="26.62 43.11 68.26 42.74 68.26 42.91 26.63 43.28 26.62 43.11"/><polygon class="cls-29" points="26.62 43.2 68.26 42.83 68.26 43 26.63 43.36 26.62 43.2"/><polygon class="cls-30" points="26.63 43.28 68.26 42.91 68.26 43.08 26.63 43.45 26.63 43.28"/><polygon class="cls-30" points="26.63 43.36 68.26 43 68.26 43.16 26.63 43.53 26.63 43.36"/><polygon class="cls-31" points="26.63 43.45 68.26 43.08 68.26 43.25 26.63 43.62 26.63 43.45"/><polygon class="cls-32" points="26.63 43.53 68.26 43.16 68.26 43.33 26.63 43.7 26.63 43.53"/><polygon class="cls-33" points="26.63 43.62 68.26 43.25 68.27 43.41 26.63 43.78 26.63 43.62"/><polygon class="cls-34" points="26.63 43.7 68.26 43.33 68.27 43.5 26.63 43.87 26.63 43.7"/><polygon class="cls-35" points="26.63 43.78 68.27 43.41 68.27 43.58 26.63 43.95 26.63 43.78"/><polygon class="cls-36" points="26.63 43.87 68.27 43.5 68.27 43.67 26.63 44.04 26.63 43.87"/><polygon class="cls-37" points="26.63 43.95 68.27 43.58 68.27 43.75 26.63 44.12 26.63 43.95"/><polygon class="cls-37" points="26.63 44.04 68.27 43.67 68.27 43.84 26.63 44.2 26.63 44.04"/><polygon class="cls-38" points="26.63 44.12 68.27 43.75 68.27 43.92 26.63 44.29 26.63 44.12"/><polygon class="cls-39" points="26.63 44.2 68.27 43.84 68.27 44 26.63 44.37 26.63 44.2"/><polygon class="cls-40" points="26.63 44.29 68.27 43.92 68.27 44.09 26.64 44.46 26.63 44.29"/><polygon class="cls-40" points="26.63 44.37 68.27 44 68.27 44.17 26.64 44.54 26.63 44.37"/><polygon class="cls-41" points="26.64 44.46 68.27 44.09 68.27 44.26 26.64 44.62 26.64 44.46"/><polygon class="cls-42" points="26.64 44.54 68.27 44.17 68.27 44.34 26.64 44.71 26.64 44.54"/><polygon class="cls-43" points="26.64 44.62 68.27 44.26 68.27 44.42 26.64 44.79 26.64 44.62"/><polygon class="cls-44" points="26.64 44.71 68.27 44.34 68.27 44.51 26.64 44.88 26.64 44.71"/><polygon class="cls-45" points="26.64 44.79 68.27 44.42 68.28 44.59 26.64 44.96 26.64 44.79"/><polygon class="cls-46" points="26.64 44.88 68.27 44.51 68.28 44.67 26.64 45.04 26.64 44.88"/><polygon class="cls-47" points="26.64 44.96 68.28 44.59 68.28 44.76 26.64 45.13 26.64 44.96"/><polygon class="cls-47" points="26.64 45.04 68.28 44.67 68.28 44.84 26.64 45.21 26.64 45.04"/><polygon class="cls-48" points="26.64 45.13 68.28 44.76 68.28 44.92 26.64 45.29 26.64 45.13"/><polygon class="cls-49" points="26.64 45.21 68.28 44.84 68.28 45.01 26.64 45.38 26.64 45.21"/><polygon class="cls-49" points="26.64 45.29 68.28 44.92 68.28 45.09 26.64 45.46 26.64 45.29"/><polygon class="cls-50" points="26.64 45.38 68.28 45.01 68.28 45.18 26.64 45.55 26.64 45.38"/><polygon class="cls-51" points="26.64 45.46 68.28 45.09 68.28 45.26 26.65 45.63 26.64 45.46"/><polygon class="cls-52" points="26.64 45.55 68.28 45.18 68.28 45.34 26.65 45.71 26.64 45.55"/><polygon class="cls-53" points="26.65 45.63 68.28 45.26 68.28 45.43 26.65 45.8 26.65 45.63"/><polygon class="cls-54" points="26.65 45.71 68.28 45.34 68.28 45.51 26.65 45.88 26.65 45.71"/><polygon class="cls-55" points="26.65 45.8 68.28 45.43 68.28 45.6 26.65 45.97 26.65 45.8"/><polygon class="cls-56" points="26.65 45.88 68.28 45.51 68.28 45.68 26.65 46.05 26.65 45.88"/><polygon class="cls-57" points="26.65 45.97 68.28 45.6 68.29 45.77 26.65 46.13 26.65 45.97"/><polygon class="cls-58" points="26.65 46.05 68.28 45.68 68.29 45.85 26.65 46.22 26.65 46.05"/><polygon class="cls-59" points="26.65 46.13 68.29 45.77 68.29 45.93 26.65 46.3 26.65 46.13"/><polygon class="cls-60" points="26.65 46.22 68.29 45.85 68.29 46.02 26.65 46.39 26.65 46.22"/><polygon class="cls-61" points="26.65 46.3 68.29 45.93 68.29 46.1 26.65 46.47 26.65 46.3"/><polygon class="cls-62" points="26.65 46.39 68.29 46.02 68.29 46.19 26.65 46.55 26.65 46.39"/><polygon class="cls-62" points="26.65 46.47 68.29 46.1 68.29 46.27 26.65 46.64 26.65 46.47"/><polygon class="cls-63" points="26.65 46.55 68.29 46.19 68.29 46.35 26.65 46.72 26.65 46.55"/><polygon class="cls-63" points="26.65 46.64 68.29 46.27 68.29 46.44 26.66 46.81 26.65 46.64"/><polygon class="cls-64" points="26.65 46.72 68.29 46.35 68.29 46.52 26.66 46.89 26.65 46.72"/><polygon class="cls-65" points="26.66 46.81 68.29 46.44 68.29 46.6 26.66 46.97 26.66 46.81"/><polygon class="cls-65" points="26.66 46.89 68.29 46.52 68.29 46.69 26.66 47.06 26.66 46.89"/><polygon class="cls-66" points="26.66 46.97 68.29 46.6 68.29 46.77 26.66 47.14 26.66 46.97"/><polygon class="cls-67" points="26.66 47.06 68.29 46.69 68.29 46.85 26.66 47.22 26.66 47.06"/><polygon class="cls-68" points="26.66 47.14 68.29 46.77 68.29 46.94 26.66 47.31 26.66 47.14"/><polygon class="cls-68" points="26.66 47.22 68.29 46.85 68.3 47.02 26.66 47.39 26.66 47.22"/><polygon class="cls-69" points="26.66 47.31 68.29 46.94 68.3 47.11 26.66 47.48 26.66 47.31"/><polygon class="cls-70" points="26.66 47.39 68.3 47.02 68.3 47.19 26.66 47.56 26.66 47.39"/><polygon class="cls-71" points="26.66 47.48 68.3 47.11 68.3 47.27 26.66 47.64 26.66 47.48"/><polygon class="cls-71" points="26.66 47.56 68.3 47.19 68.3 47.36 26.66 47.73 26.66 47.56"/><polygon class="cls-72" points="26.66 47.64 68.3 47.27 68.3 47.45 26.66 47.81 26.66 47.64"/><polygon class="cls-73" points="26.66 47.73 68.3 47.36 68.3 47.53 26.66 47.9 26.66 47.73"/><polygon class="cls-74" points="26.66 47.81 68.3 47.45 68.3 47.61 26.66 47.98 26.66 47.81"/><polygon class="cls-75" points="26.66 47.9 68.3 47.53 68.3 47.7 26.67 48.06 26.66 47.9"/><polygon class="cls-76" points="26.66 47.98 68.3 47.61 68.31 47.78 26.67 48.15 26.66 47.98"/><polygon class="cls-77" points="26.67 48.06 68.3 47.7 68.31 47.86 26.67 48.23 26.67 48.06"/><polygon class="cls-78" points="26.67 48.15 68.31 47.78 68.31 47.95 26.67 48.32 26.67 48.15"/><polygon class="cls-79" points="26.67 48.23 68.31 47.86 68.31 48.03 26.67 48.4 26.67 48.23"/><polygon class="cls-80" points="26.67 48.32 68.31 47.95 68.31 48.12 26.67 48.48 26.67 48.32"/><polygon class="cls-81" points="26.67 48.4 68.31 48.03 68.31 48.2 26.67 48.57 26.67 48.4"/><polygon class="cls-82" points="26.67 48.48 68.31 48.12 68.31 48.28 26.67 48.65 26.67 48.48"/><polygon class="cls-82" points="26.67 48.57 68.31 48.2 68.31 48.37 26.67 48.74 26.67 48.57"/><polygon class="cls-83" points="26.67 48.65 68.31 48.28 68.31 48.45 26.68 48.82 26.67 48.65"/><polygon class="cls-84" points="26.67 48.74 68.31 48.37 68.31 48.53 26.68 48.9 26.67 48.74"/><polygon class="cls-84" points="26.68 48.82 68.31 48.45 68.31 48.62 26.68 48.99 26.68 48.82"/><polygon class="cls-85" points="26.68 48.9 68.31 48.53 68.31 48.7 26.68 49.07 26.68 48.9"/><polygon class="cls-86" points="26.68 48.99 68.31 48.62 68.31 48.78 26.68 49.16 26.68 48.99"/><polygon class="cls-87" points="26.68 49.07 68.31 48.7 68.31 48.87 26.68 49.24 26.68 49.07"/><polygon class="cls-88" points="26.68 49.16 68.31 48.78 68.31 48.95 26.68 49.32 26.68 49.16"/><polygon class="cls-89" points="26.68 49.24 68.31 48.87 68.31 49.04 26.68 49.41 26.68 49.24"/><polygon class="cls-89" points="26.68 49.32 68.31 48.95 68.31 49.12 26.68 49.49 26.68 49.32"/><polygon class="cls-90" points="26.68 49.41 68.31 49.04 68.31 49.2 26.68 49.57 26.68 49.41"/><polygon class="cls-90" points="26.68 49.49 68.31 49.12 68.31 49.29 26.68 49.66 26.68 49.49"/><polygon class="cls-91" points="26.68 49.57 68.31 49.2 68.32 49.38 26.68 49.74 26.68 49.57"/><polygon class="cls-92" points="26.68 49.66 68.31 49.29 68.32 49.46 26.68 49.83 26.68 49.66"/><polygon class="cls-93" points="26.68 49.74 68.32 49.38 68.32 49.54 26.68 49.91 26.68 49.74"/><polygon class="cls-93" points="26.68 49.83 68.32 49.46 68.32 49.63 26.69 49.99 26.68 49.83"/><polygon class="cls-94" points="26.68 49.91 68.32 49.54 68.32 49.71 26.69 50.08 26.68 49.91"/><polygon class="cls-95" points="26.69 49.99 68.32 49.63 68.32 49.79 26.69 50.16 26.69 49.99"/><polygon class="cls-96" points="26.69 50.08 68.32 49.71 68.32 49.88 26.69 50.25 26.69 50.08"/><polygon class="cls-97" points="26.69 50.16 68.32 49.79 68.32 49.96 26.69 50.33 26.69 50.16"/><polygon class="cls-98" points="26.69 50.25 68.32 49.88 68.32 50.05 26.69 50.41 26.69 50.25"/><polygon class="cls-99" points="26.69 50.33 68.32 49.96 68.32 50.13 26.69 50.5 26.69 50.33"/><polygon class="cls-100" points="26.69 50.41 68.32 50.05 68.33 50.21 26.69 50.58 26.69 50.41"/><polygon class="cls-100" points="26.69 50.5 68.32 50.13 68.33 50.3 26.69 50.67 26.69 50.5"/><polygon class="cls-101" points="26.69 50.58 68.33 50.21 68.33 50.38 26.69 50.75 26.69 50.58"/><polygon class="cls-102" points="26.69 50.67 68.33 50.3 68.33 50.47 26.69 50.83 26.69 50.67"/><polygon class="cls-102" points="26.69 50.75 68.33 50.38 68.33 50.55 26.69 50.92 26.69 50.75"/><polygon class="cls-102" points="26.69 50.83 68.33 50.47 68.33 50.63 26.69 51 26.69 50.83"/><polygon class="cls-103" points="26.69 50.92 68.33 50.55 68.33 50.72 26.69 51.09 26.69 50.92"/><polygon class="cls-103" points="26.69 51 68.33 50.63 68.33 50.8 26.69 51.17 26.69 51"/><polygon class="cls-104" points="26.69 51.09 68.33 50.72 68.33 50.88 26.7 51.25 26.69 51.09"/><polygon class="cls-105" points="26.69 51.17 68.33 50.8 68.33 50.97 26.7 51.34 26.69 51.17"/><polygon class="cls-106" points="26.7 51.25 68.33 50.88 68.33 51.05 26.7 51.42 26.7 51.25"/><polygon class="cls-107" points="26.7 51.34 68.33 50.97 68.33 51.13 26.7 51.5 26.7 51.34"/><polygon class="cls-108" points="26.7 51.42 68.33 51.05 68.33 51.22 26.7 51.59 26.7 51.42"/><polygon class="cls-107" points="26.7 51.5 68.33 51.13 68.33 51.3 26.7 51.67 26.7 51.5"/><polygon class="cls-109" points="26.7 51.59 68.33 51.22 68.34 51.39 26.7 51.76 26.7 51.59"/><polygon class="cls-110" points="26.7 51.67 68.33 51.3 68.34 51.47 26.7 51.84 26.7 51.67"/><polygon class="cls-110" points="26.7 51.76 68.34 51.39 68.34 51.55 26.7 51.92 26.7 51.76"/><polygon class="cls-111" points="26.7 51.84 68.34 51.47 68.34 51.64 26.7 52.01 26.7 51.84"/><polygon class="cls-112" points="26.7 51.92 68.34 51.55 68.34 51.72 26.7 52.09 26.7 51.92"/><polygon class="cls-113" points="26.7 52.01 68.34 51.64 68.34 51.8 26.7 52.18 26.7 52.01"/><polygon class="cls-114" points="26.7 52.09 68.34 51.72 68.34 51.89 26.7 52.26 26.7 52.09"/><polygon class="cls-115" points="26.7 52.18 68.34 51.8 68.34 51.98 26.7 52.34 26.7 52.18"/><polygon class="cls-116" points="26.7 52.26 68.34 51.89 68.34 52.06 26.71 52.43 26.7 52.26"/><polygon class="cls-117" points="26.7 52.34 68.34 51.98 68.34 52.14 26.71 52.51 26.7 52.34"/><polygon class="cls-117" points="26.71 52.43 68.34 52.06 68.34 52.23 26.71 52.6 26.71 52.43"/><polygon class="cls-118" points="26.71 52.51 68.34 52.14 68.34 52.31 26.71 52.68 26.71 52.51"/><polygon class="cls-119" points="26.71 52.6 68.34 52.23 68.34 52.4 26.71 52.76 26.71 52.6"/><polygon class="cls-119" points="26.71 52.68 68.34 52.31 68.34 52.48 26.71 52.85 26.71 52.68"/><polygon class="cls-120" points="26.71 52.76 68.34 52.4 68.35 52.56 26.71 52.93 26.71 52.76"/><polygon class="cls-120" points="26.71 52.85 68.34 52.48 68.35 52.65 26.71 53.02 26.71 52.85"/><polygon class="cls-121" points="26.71 52.93 68.35 52.56 68.35 52.73 26.71 53.1 26.71 52.93"/><polygon class="cls-122" points="26.71 53.02 68.35 52.65 68.35 52.81 26.71 53.18 26.71 53.02"/><polygon class="cls-123" points="26.71 53.1 68.35 52.73 68.35 52.9 26.71 53.27 26.71 53.1"/><polygon class="cls-124" points="26.71 53.18 68.35 52.81 68.35 52.98 26.71 53.35 26.71 53.18"/><polygon class="cls-125" points="26.71 53.27 68.35 52.9 68.35 53.06 26.71 53.43 26.71 53.27"/><polygon class="cls-126" points="26.71 53.35 68.35 52.98 68.35 53.15 26.71 53.52 26.71 53.35"/><polygon class="cls-127" points="26.71 53.43 68.35 53.06 68.35 53.23 26.72 53.6 26.71 53.43"/><polygon class="cls-128" points="26.71 53.52 68.35 53.15 68.35 53.32 26.72 53.69 26.71 53.52"/><polygon class="cls-129" points="26.72 53.6 68.35 53.23 68.35 53.4 26.72 53.77 26.72 53.6"/><polygon class="cls-129" points="26.72 53.69 68.35 53.32 68.35 53.48 26.72 53.85 26.72 53.69"/><polygon class="cls-130" points="26.72 53.77 68.35 53.4 68.35 53.57 26.72 53.94 26.72 53.77"/><polygon class="cls-131" points="26.72 53.85 68.35 53.48 68.35 53.65 26.72 54.02 26.72 53.85"/><polygon class="cls-132" points="26.72 53.94 68.35 53.57 68.36 53.73 26.72 54.11 26.72 53.94"/><polygon class="cls-133" points="26.72 54.02 68.35 53.65 68.36 53.82 26.72 54.19 26.72 54.02"/><polygon class="cls-134" points="26.72 54.11 68.36 53.73 68.36 53.91 26.72 54.27 26.72 54.11"/><polygon class="cls-135" points="26.72 54.19 68.36 53.82 68.36 53.99 26.72 54.36 26.72 54.19"/><polygon class="cls-135" points="26.72 54.27 68.36 53.91 68.36 54.07 26.72 54.44 26.72 54.27"/><polygon class="cls-136" points="26.72 54.36 68.36 53.99 68.36 54.16 26.72 54.53 26.72 54.36"/><polygon class="cls-137" points="26.72 54.44 68.36 54.07 68.36 54.24 26.72 54.61 26.72 54.44"/><polygon class="cls-138" points="26.72 54.53 68.36 54.16 68.36 54.33 26.72 54.69 26.72 54.53"/><polygon class="cls-138" points="26.72 54.61 68.36 54.24 68.36 54.41 26.73 54.78 26.72 54.61"/><polygon class="cls-139" points="26.72 54.69 68.36 54.33 68.36 54.49 26.73 54.86 26.72 54.69"/><polygon class="cls-140" points="26.73 54.78 68.36 54.41 68.36 54.58 26.73 54.95 26.73 54.78"/><polygon class="cls-141" points="26.73 54.86 68.36 54.49 68.36 54.66 26.73 55.03 26.73 54.86"/><polygon class="cls-142" points="26.73 54.95 68.36 54.58 68.36 54.74 26.73 55.11 26.73 54.95"/><polygon class="cls-143" points="26.73 55.03 68.36 54.66 68.36 54.83 26.73 55.2 26.73 55.03"/><polygon class="cls-143" points="26.73 55.11 68.36 54.74 68.36 54.91 26.73 55.28 26.73 55.11"/><polygon class="cls-144" points="26.73 55.2 68.36 54.83 68.37 54.99 26.73 55.36 26.73 55.2"/><polygon class="cls-144" points="26.73 55.28 68.36 54.91 68.37 55.08 26.73 55.45 26.73 55.28"/><polygon class="cls-145" points="26.73 55.36 68.37 54.99 68.37 55.16 26.73 55.53 26.73 55.36"/><polygon class="cls-146" points="26.73 55.45 68.37 55.08 68.37 55.24 26.73 55.62 26.73 55.45"/><polygon class="cls-146" points="26.73 55.53 68.37 55.16 68.37 55.33 26.73 55.7 26.73 55.53"/><polygon class="cls-147" points="26.73 55.62 68.37 55.24 68.37 55.41 26.73 55.78 26.73 55.62"/><polygon class="cls-148" points="26.73 55.7 68.37 55.33 68.37 55.5 26.73 55.87 26.73 55.7"/><polygon class="cls-149" points="26.73 55.78 68.37 55.41 68.37 55.58 26.73 55.95 26.73 55.78"/><polygon class="cls-150" points="26.73 55.87 68.37 55.5 68.37 55.66 26.74 56.04 26.73 55.87"/><polygon class="cls-151" points="26.73 55.95 68.37 55.58 68.38 55.75 26.74 56.12 26.73 55.95"/><polygon class="cls-152" points="26.74 56.04 68.37 55.66 68.38 55.84 26.74 56.2 26.74 56.04"/><polygon class="cls-153" points="26.74 56.12 68.38 55.75 68.38 55.92 26.74 56.29 26.74 56.12"/><polygon class="cls-153" points="26.74 56.2 68.38 55.84 68.38 56 26.74 56.37 26.74 56.2"/><polygon class="cls-154" points="26.74 56.29 68.38 55.92 68.38 56.09 26.74 56.46 26.74 56.29"/><polygon class="cls-155" points="26.74 56.37 68.38 56 68.38 56.17 26.74 56.54 26.74 56.37"/><polygon class="cls-156" points="26.74 56.46 68.38 56.09 68.38 56.25 26.74 56.62 26.74 56.46"/><polygon class="cls-157" points="26.74 56.54 68.38 56.17 68.38 56.34 26.74 56.71 26.74 56.54"/><polygon class="cls-158" points="26.74 56.62 68.38 56.25 68.38 56.42 26.75 56.79 26.74 56.62"/><polygon class="cls-159" points="26.74 56.71 68.38 56.34 68.38 56.51 26.75 56.88 26.74 56.71"/><polygon class="cls-160" points="26.75 56.79 68.38 56.42 68.38 56.59 26.75 56.96 26.75 56.79"/><polygon class="cls-161" points="26.75 56.88 68.38 56.51 68.38 56.67 26.75 57.04 26.75 56.88"/><polygon class="cls-162" points="26.75 56.96 68.38 56.59 68.38 56.76 26.75 57.13 26.75 56.96"/><polygon class="cls-163" points="26.75 57.04 68.38 56.67 68.38 56.84 26.75 57.21 26.75 57.04"/><polygon class="cls-164" points="26.75 57.13 68.38 56.76 68.39 56.92 26.75 57.29 26.75 57.13"/><polygon class="cls-164" points="26.75 57.21 68.38 56.84 68.39 57.01 26.75 57.38 26.75 57.21"/><polygon class="cls-165" points="26.75 57.29 68.39 56.92 68.39 57.09 26.75 57.46 26.75 57.29"/><polygon class="cls-165" points="26.75 57.38 68.39 57.01 68.39 57.17 26.75 57.55 26.75 57.38"/><polygon class="cls-166" points="26.75 57.46 68.39 57.09 68.39 57.26 26.75 57.63 26.75 57.46"/><polygon class="cls-167" points="26.75 57.55 68.39 57.17 68.39 57.34 26.75 57.71 26.75 57.55"/><polygon class="cls-168" points="26.75 57.63 68.39 57.26 68.39 57.43 26.75 57.8 26.75 57.63"/><polygon class="cls-169" points="26.75 57.71 68.39 57.34 68.39 57.51 26.75 57.88 26.75 57.71"/><polygon class="cls-170" points="26.75 57.8 68.39 57.43 68.39 57.59 26.76 57.97 26.75 57.8"/><polygon class="cls-170" points="26.75 57.88 68.39 57.51 68.39 57.68 26.76 58.05 26.75 57.88"/><polygon class="cls-171" points="26.76 57.97 68.39 57.59 68.39 57.77 26.76 58.13 26.76 57.97"/><polygon class="cls-172" points="26.76 58.05 68.39 57.68 68.39 57.85 26.76 58.22 26.76 58.05"/><polygon class="cls-172" points="26.76 58.13 68.39 57.77 68.39 57.93 26.76 58.3 26.76 58.13"/><polygon class="cls-173" points="26.76 58.22 68.39 57.85 68.39 58.02 26.76 58.39 26.76 58.22"/><polygon class="cls-174" points="26.76 58.3 68.39 57.93 68.39 58.1 26.76 58.47 26.76 58.3"/><polygon class="cls-175" points="26.76 58.39 68.39 58.02 68.4 58.18 26.76 58.55 26.76 58.39"/><polygon class="cls-176" points="26.76 58.47 68.39 58.1 68.4 58.27 26.76 58.64 26.76 58.47"/><polygon class="cls-177" points="26.76 58.55 68.4 58.18 68.4 58.35 26.76 58.72 26.76 58.55"/><polygon class="cls-177" points="26.76 58.64 68.4 58.27 68.4 58.44 26.76 58.8 26.76 58.64"/><polygon class="cls-178" points="26.76 58.72 68.4 58.35 68.4 58.52 26.76 58.89 26.76 58.72"/><polygon class="cls-179" points="26.76 58.8 68.4 58.44 68.4 58.6 26.76 58.97 26.76 58.8"/><polygon class="cls-180" points="26.76 58.89 68.4 58.52 68.4 58.69 26.76 59.06 26.76 58.89"/><polygon class="cls-181" points="26.76 58.97 68.4 58.6 68.4 58.77 26.76 59.14 26.76 58.97"/><polygon class="cls-182" points="26.76 59.06 68.4 58.69 68.4 58.85 26.77 59.22 26.76 59.06"/><polygon class="cls-182" points="26.76 59.14 68.4 58.77 68.4 58.94 26.77 59.31 26.76 59.14"/><polygon class="cls-182" points="26.77 59.22 68.4 58.85 68.4 59.02 26.77 59.39 26.77 59.22"/><polygon class="cls-183" points="26.77 59.31 68.4 58.94 68.4 59.1 26.77 59.48 26.77 59.31"/><polygon class="cls-183" points="26.77 59.39 68.4 59.02 68.4 59.19 26.77 59.56 26.77 59.39"/><polygon class="cls-184" points="26.77 59.48 68.4 59.1 68.4 59.27 26.77 59.64 26.77 59.48"/><polygon class="cls-185" points="26.77 59.56 68.4 59.19 68.41 59.36 26.77 59.73 26.77 59.56"/><polygon class="cls-186" points="26.77 59.64 68.4 59.27 68.41 59.44 26.77 59.81 26.77 59.64"/><polygon class="cls-187" points="26.77 59.73 68.41 59.36 68.41 59.52 26.77 59.9 26.77 59.73"/><polygon class="cls-187" points="26.77 59.81 68.41 59.44 68.41 59.61 26.77 59.98 26.77 59.81"/><polygon class="cls-188" points="26.77 59.9 68.41 59.52 68.41 59.69 26.77 60.06 26.77 59.9"/><polygon class="cls-189" points="26.77 59.98 68.41 59.61 68.41 59.78 26.77 60.15 26.77 59.98"/><polygon class="cls-189" points="26.77 60.06 68.41 59.69 68.41 59.86 26.77 60.23 26.77 60.06"/><polygon class="cls-190" points="26.77 60.15 68.41 59.78 68.41 59.95 26.77 60.31 26.77 60.15"/></g><path class="cls-191" d="M45.2,46.83c-.05,0,1,.85.28,1.22a7.25,7.25,0,0,1-1,.48l-2.35,1.6-3.2,1.51-3,2.45-1.41.47c-.33.11-1.26-.47-.66-1.6A7.27,7.27,0,0,1,36,51.26c1.33-.82,2.81-1.7,3.24-2.07a22.32,22.32,0,0,1,1.88-1.42l1.22-1.22.47-.67a4.35,4.35,0,0,1,.75-.75A7.38,7.38,0,0,1,45,44.28l.56-.56.57-.19.75-.75h.47S47.08,42,48,42h1.6V31.46l-.28-1.13-.47-.57L49,29l.28-1.42s1-.37,1.41.1a3.82,3.82,0,0,1,1,2.17c0,.85-.1,2.45-.1,2.45l-.09,1.89v1.22l-.19,2.17v1.7l.47.18-.28,1.61a8.53,8.53,0,0,0,3.48-1.89c2.16-1.7,2.82-1.79,2.82-1.79l1.51-.85,2.63-1.69,1.22-1,2.17-1.51s2.54-1,.94,1S61,37.3,61,37.3L58.74,39l-1.69,1L56,41l-1,.47-1.69,1.33-1.6,1.13.66,8.29v2c0,.85.18,3.12.18,3.12a2.91,2.91,0,0,1,.57,1.22v7.83l.19.94a1.61,1.61,0,0,1,.56,1c0,.57-.37.09-.37,1s-.29,1.22.19,2.26A6.58,6.58,0,0,1,54,74.55a5.63,5.63,0,0,1-.28,2.27,6.94,6.94,0,0,0-.13,2.29l-2.51.06s-.66-1.32,0-1.41.66-1,.66-1.6-.18-1.14-.18-1.7V73c0-.94-.1-5.09-.1-5.56s.09-1.89,0-3.4S51,60.22,51,60.22a8.15,8.15,0,0,1-.19-1.79,6.74,6.74,0,0,0-.19-1.7s-.19,0-.09-.66.19-3.3.19-3.77S49.9,45,49.9,45V43.72l-3,2.21Z" transform="translate(-3.7 -4.37)"/><path class="cls-192" d="M45.93,46.83s1,.85.28,1.22a7.62,7.62,0,0,1-1,.48l-2.36,1.6-3.2,1.51-3,2.45-1.41.47c-.32.11-1.26-.47-.66-1.6a7.34,7.34,0,0,1,2.23-1.7c1.32-.82,2.81-1.7,3.23-2.07a22.32,22.32,0,0,1,1.88-1.42l1.23-1.22.47-.67a3.89,3.89,0,0,1,.75-.75,7.13,7.13,0,0,1,1.41-.85l.56-.56.57-.19.75-.75h.47s-.28-.76.66-.76h1.6V31.46l-.28-1.13-.47-.57.09-.75L50,27.59s1-.37,1.42.1a3.88,3.88,0,0,1,.94,2.17c0,.85-.1,2.45-.1,2.45l-.09,1.89v1.22L52,37.59v1.7l.47.18-.28,1.61a8.47,8.47,0,0,0,3.48-1.89c2.16-1.7,2.82-1.79,2.82-1.79L60,36.55l2.63-1.69,1.23-1L66,32.4s2.54-1,.94,1-5.17,3.86-5.17,3.86L59.48,39l-1.7,1-1,.94-1,.47L54,42.78l-1.6,1.13.66,8.29v2c0,.85.19,3.12.19,3.12a2.93,2.93,0,0,1,.56,1.22v7.83l.19.94a1.61,1.61,0,0,1,.56,1c0,.57-.37.09-.37,1s-.28,1.22.19,2.26a6.44,6.44,0,0,1,.37,2.92,5.63,5.63,0,0,1-.28,2.27,6.94,6.94,0,0,0-.13,2.29l-2.5.06s-.66-1.32,0-1.41.65-1,.65-1.6-.18-1.14-.18-1.7V73c0-.94-.1-5.09-.1-5.56s.09-1.89,0-3.4-.47-3.77-.47-3.77a8.15,8.15,0,0,1-.19-1.79,7.1,7.1,0,0,0-.18-1.7s-.19,0-.1-.66.19-3.3.19-3.77S50.63,45,50.63,45V43.72l-3,2.21Z" transform="translate(-3.7 -4.37)"/><path class="cls-193" d="M27.52,87.79l1.23.39a2.74,2.74,0,0,1-.94,1.53,2.7,2.7,0,0,1-1.67.5,2.72,2.72,0,0,1-2.06-.86,3.29,3.29,0,0,1-.8-2.33,3.44,3.44,0,0,1,.81-2.44,2.77,2.77,0,0,1,2.13-.87,2.62,2.62,0,0,1,1.87.68,2.45,2.45,0,0,1,.64,1.16l-1.25.3a1.33,1.33,0,0,0-.47-.77,1.31,1.31,0,0,0-.86-.28,1.41,1.41,0,0,0-1.13.5,2.44,2.44,0,0,0-.43,1.62,2.68,2.68,0,0,0,.42,1.7,1.39,1.39,0,0,0,1.12.5A1.23,1.23,0,0,0,27,88.8,1.83,1.83,0,0,0,27.52,87.79Z" transform="translate(-3.7 -4.37)"/><path class="cls-193" d="M29.58,87a4,4,0,0,1,.29-1.61,3,3,0,0,1,.58-.86,2.34,2.34,0,0,1,.82-.57,3.35,3.35,0,0,1,1.35-.25,2.94,2.94,0,0,1,2.22.86,3.84,3.84,0,0,1,0,4.78,3.3,3.3,0,0,1-4.44,0A3.24,3.24,0,0,1,29.58,87Zm1.31,0a2.32,2.32,0,0,0,.49,1.61,1.71,1.71,0,0,0,2.5,0,2.43,2.43,0,0,0,.48-1.64,2.33,2.33,0,0,0-.47-1.61,1.57,1.57,0,0,0-1.26-.53,1.6,1.6,0,0,0-1.26.53A2.39,2.39,0,0,0,30.89,87Z" transform="translate(-3.7 -4.37)"/><path class="cls-193" d="M36.7,90.1V83.87H38V89h3.15V90.1Z" transform="translate(-3.7 -4.37)"/><path class="cls-193" d="M42,90.1V83.82h4.66v1.06H43.3v1.39h3.15v1.06H43.3V89h3.51V90.1Z" transform="translate(-3.7 -4.37)"/><path class="cls-193" d="M50.8,87.79V86.73h2.74v2.51a3.48,3.48,0,0,1-1.16.67,4.09,4.09,0,0,1-1.53.3,3.4,3.4,0,0,1-1.72-.42A2.62,2.62,0,0,1,48,88.61a3.89,3.89,0,0,1-.37-1.67,3.68,3.68,0,0,1,.41-1.75A2.91,2.91,0,0,1,49.28,84a3.33,3.33,0,0,1,1.5-.31,3,3,0,0,1,1.83.49,2.24,2.24,0,0,1,.85,1.36l-1.26.23a1.4,1.4,0,0,0-.5-.73,1.51,1.51,0,0,0-.92-.26,1.73,1.73,0,0,0-1.32.52A2.22,2.22,0,0,0,49,86.89a2.4,2.4,0,0,0,.5,1.67,1.63,1.63,0,0,0,1.3.56,2.31,2.31,0,0,0,.8-.15,3,3,0,0,0,.69-.38v-.8Z" transform="translate(-3.7 -4.37)"/><path class="cls-193" d="M54.67,90.1V83.82h1.27V90.1Z" transform="translate(-3.7 -4.37)"/><path class="cls-193" d="M56.89,87a3.83,3.83,0,0,1,.29-1.61,2.78,2.78,0,0,1,.58-.86,2.4,2.4,0,0,1,.81-.57,3.4,3.4,0,0,1,1.36-.25,3,3,0,0,1,2.22.86A3.35,3.35,0,0,1,63,87a3.29,3.29,0,0,1-.82,2.38,3.3,3.3,0,0,1-4.44,0A3.2,3.2,0,0,1,56.89,87Zm1.31,0a2.32,2.32,0,0,0,.49,1.61,1.69,1.69,0,0,0,2.49,0,3,3,0,0,0,0-3.25,1.76,1.76,0,0,0-2.52,0A2.39,2.39,0,0,0,58.2,87Z" transform="translate(-3.7 -4.37)"/><path class="cls-193" d="M66.41,90.1V83.82h4.66v1.06H67.68v1.39h3.15v1.06H67.68V89h3.51V90.1Z" transform="translate(-3.7 -4.37)"/><path class="cls-193" d="M72.3,90.1V83.87h1.27V89h3.15V90.1Z" transform="translate(-3.7 -4.37)"/><path class="cls-193" d="M26.68,116.42l1,.32a2.27,2.27,0,0,1-.76,1.24,2.19,2.19,0,0,1-1.36.4,2.22,2.22,0,0,1-1.67-.69,2.69,2.69,0,0,1-.65-1.9,2.79,2.79,0,0,1,.66-2,2.25,2.25,0,0,1,1.73-.7,2.08,2.08,0,0,1,1.51.55,2,2,0,0,1,.53.94l-1,.25a1.07,1.07,0,0,0-.38-.63,1.09,1.09,0,0,0-.7-.23,1.19,1.19,0,0,0-.92.41,2,2,0,0,0-.35,1.31,2.14,2.14,0,0,0,.35,1.38,1.1,1.1,0,0,0,.9.41,1,1,0,0,0,.71-.26A1.45,1.45,0,0,0,26.68,116.42Z" transform="translate(-3.7 -4.37)"/><path class="cls-193" d="M28.53,118.3v-5.1h1v5.1Z" transform="translate(-3.7 -4.37)"/><path class="cls-193" d="M30.54,113.2h1V116a7.23,7.23,0,0,0,0,.85.81.81,0,0,0,.32.5,1.06,1.06,0,0,0,.68.19,1,1,0,0,0,.66-.18.69.69,0,0,0,.27-.44,5.85,5.85,0,0,0,0-.86V113.2h1v2.67a7.45,7.45,0,0,1-.08,1.3,1.47,1.47,0,0,1-.31.64,1.58,1.58,0,0,1-.6.42,3.49,3.49,0,0,1-2.09,0,1.59,1.59,0,0,1-.59-.43,1.29,1.29,0,0,1-.29-.57,6,6,0,0,1-.1-1.29Z" transform="translate(-3.7 -4.37)"/><path class="cls-193" d="M35.68,113.2h1.88a3.91,3.91,0,0,1,1,.09,1.75,1.75,0,0,1,.77.47,2.15,2.15,0,0,1,.49.83,3.81,3.81,0,0,1,.17,1.2,3.48,3.48,0,0,1-.16,1.09,2.25,2.25,0,0,1-.55.9,1.84,1.84,0,0,1-.72.41,3.18,3.18,0,0,1-.91.11H35.68Zm1,.86v3.38h.77a2.85,2.85,0,0,0,.62,0,1,1,0,0,0,.42-.21,1.11,1.11,0,0,0,.27-.5,3.33,3.33,0,0,0,.1-.93,3.09,3.09,0,0,0-.1-.91,1.23,1.23,0,0,0-.29-.49,1,1,0,0,0-.48-.24,4.91,4.91,0,0,0-.85,0Z" transform="translate(-3.7 -4.37)"/><path class="cls-193" d="M45.43,118.3H44.31l-.45-1.16h-2l-.42,1.16H40.31l2-5.1h1.09Zm-1.9-2-.7-1.89-.69,1.89Z" transform="translate(-3.7 -4.37)"/><path class="cls-193" d="M46,113.2h1.88a3.91,3.91,0,0,1,1,.09,1.75,1.75,0,0,1,.77.47,2.29,2.29,0,0,1,.49.83,3.83,3.83,0,0,1,.16,1.2,3.5,3.5,0,0,1-.15,1.09,2.25,2.25,0,0,1-.55.9,1.92,1.92,0,0,1-.72.41,3.18,3.18,0,0,1-.91.11H46Zm1,.86v3.38h.77a3,3,0,0,0,.62,0,1,1,0,0,0,.42-.21,1,1,0,0,0,.26-.5,3.28,3.28,0,0,0,.11-.93,3,3,0,0,0-.11-.91,1,1,0,0,0-.29-.49.92.92,0,0,0-.47-.24,5,5,0,0,0-.85,0Z" transform="translate(-3.7 -4.37)"/><path class="cls-193" d="M54.4,118.3l-1.83-5.1h1.12L55,117l1.25-3.77h1.09l-1.83,5.1Z" transform="translate(-3.7 -4.37)"/><path class="cls-193" d="M57.85,118.3v-5.1h3.78v.86H58.88v1.13h2.55v.86H58.88v1.39h2.84v.86Z" transform="translate(-3.7 -4.37)"/><path class="cls-193" d="M62.6,118.3v-5.1h2.17a3.74,3.74,0,0,1,1.18.13,1.25,1.25,0,0,1,.6.49,1.47,1.47,0,0,1,.22.81,1.33,1.33,0,0,1-.34.94,1.63,1.63,0,0,1-1,.48,2,2,0,0,1,.55.42,5.81,5.81,0,0,1,.59.83l.62,1H66l-.74-1.11a9,9,0,0,0-.54-.75.85.85,0,0,0-.31-.22,2.15,2.15,0,0,0-.52,0h-.21v2.13Zm1-3h.76a4.22,4.22,0,0,0,.93-.06.51.51,0,0,0,.28-.22.63.63,0,0,0,.11-.38.6.6,0,0,0-.14-.41.57.57,0,0,0-.39-.2c-.08,0-.33,0-.75,0h-.8Z" transform="translate(-3.7 -4.37)"/><path class="cls-193" d="M67.74,113.2h1.88a4,4,0,0,1,1,.09,1.81,1.81,0,0,1,.77.47,2.27,2.27,0,0,1,.48.83,3.81,3.81,0,0,1,.17,1.2,3.21,3.21,0,0,1-.16,1.09,2.23,2.23,0,0,1-.54.9,1.89,1.89,0,0,1-.73.41,3.13,3.13,0,0,1-.91.11H67.74Zm1,.86v3.38h.76a3,3,0,0,0,.63,0,1.06,1.06,0,0,0,.41-.21,1.11,1.11,0,0,0,.27-.5,3.28,3.28,0,0,0,.11-.93,3,3,0,0,0-.11-.91,1.23,1.23,0,0,0-.29-.49,1,1,0,0,0-.48-.24,4.77,4.77,0,0,0-.84,0Z" transform="translate(-3.7 -4.37)"/><path class="cls-193" d="M72.88,118.3v-5.1h3.78v.86H73.91v1.13h2.56v.86H73.91v1.39h2.85v.86Z" transform="translate(-3.7 -4.37)"/><path class="cls-194" d="M23.7,91.83h3.47L28.51,97l1.33-5.2h3.48v8.55H31.15V93.86l-1.66,6.52h-2l-1.67-6.52v6.52H23.7Z" transform="translate(-3.7 -4.37)"/><path class="cls-194" d="M35.11,91.83h2.65v8.55H35.11Z" transform="translate(-3.7 -4.37)"/><path class="cls-194" d="M39.67,91.83h2.47l3.22,4.73V91.83h2.49v8.55H45.36l-3.21-4.7v4.7H39.67Z" transform="translate(-3.7 -4.37)"/><path class="cls-194" d="M55.17,91.83H57.8v5.09a4.2,4.2,0,0,1-.23,1.43,3.23,3.23,0,0,1-.74,1.18,3,3,0,0,1-1.06.71,5.34,5.34,0,0,1-1.85.28,11.08,11.08,0,0,1-1.36-.08,3.71,3.71,0,0,1-1.24-.35,3,3,0,0,1-.9-.74,2.75,2.75,0,0,1-.57-1,5.26,5.26,0,0,1-.24-1.45V91.83h2.64V97a1.5,1.5,0,0,0,.38,1.1,1.68,1.68,0,0,0,2.15,0,1.48,1.48,0,0,0,.39-1.1Z" transform="translate(-3.7 -4.37)"/><path class="cls-194" d="M59,91.83h8v2.11h-2.7v6.44H61.65V93.94H59Z" transform="translate(-3.7 -4.37)"/><path class="cls-194" d="M67.44,96.11a4.06,4.06,0,0,1,4.42-4.43,4.45,4.45,0,0,1,3.29,1.15A4.31,4.31,0,0,1,76.3,96a5.35,5.35,0,0,1-.5,2.46A3.61,3.61,0,0,1,74.34,100a4.79,4.79,0,0,1-2.38.53,5.42,5.42,0,0,1-2.39-.46A3.57,3.57,0,0,1,68,98.61,4.89,4.89,0,0,1,67.44,96.11Zm2.64,0A2.88,2.88,0,0,0,70.56,98a1.81,1.81,0,0,0,2.63,0,3.17,3.17,0,0,0,.47-2,2.61,2.61,0,0,0-.49-1.76,1.66,1.66,0,0,0-1.32-.56,1.59,1.59,0,0,0-1.28.57A2.83,2.83,0,0,0,70.08,96.12Z" transform="translate(-3.7 -4.37)"/><path class="cls-194" d="M23.57,101.65h3.91a4.66,4.66,0,0,1,1.87.32,3,3,0,0,1,1.18.9,3.77,3.77,0,0,1,.67,1.36,6.34,6.34,0,0,1,.21,1.66A5.62,5.62,0,0,1,31.1,108a3.53,3.53,0,0,1-.86,1.26,2.77,2.77,0,0,1-1.19.68,5.84,5.84,0,0,1-1.57.23H23.57Zm2.64,1.93v4.66h.64a2.73,2.73,0,0,0,1.17-.18,1.26,1.26,0,0,0,.55-.64,4.08,4.08,0,0,0,.2-1.48,2.92,2.92,0,0,0-.44-1.86,1.9,1.9,0,0,0-1.47-.5Z" transform="translate(-3.7 -4.37)"/><path class="cls-194" d="M32.79,101.65h7.05v1.82H35.43v1.36h4.09v1.73H35.43v1.68H40v1.93H32.79Z" transform="translate(-3.7 -4.37)"/><path class="cls-194" d="M45.39,101.65H49.3a4.66,4.66,0,0,1,1.87.32,3,3,0,0,1,1.18.9,3.77,3.77,0,0,1,.67,1.36,6.34,6.34,0,0,1,.21,1.66,5.62,5.62,0,0,1-.31,2.11,3.66,3.66,0,0,1-.86,1.26,2.83,2.83,0,0,1-1.19.68,5.9,5.9,0,0,1-1.57.23H45.39ZM48,103.58v4.66h.65a2.73,2.73,0,0,0,1.17-.18,1.26,1.26,0,0,0,.55-.64,4.08,4.08,0,0,0,.2-1.48,2.92,2.92,0,0,0-.44-1.86,1.9,1.9,0,0,0-1.47-.5Z" transform="translate(-3.7 -4.37)"/><path class="cls-194" d="M54.72,101.65h2.64v8.52H54.72Z" transform="translate(-3.7 -4.37)"/><path class="cls-194" d="M58.91,105.92a4,4,0,0,1,4.4-4.41,4.47,4.47,0,0,1,3.28,1.14,4.3,4.3,0,0,1,1.15,3.2,5.31,5.31,0,0,1-.5,2.45,3.61,3.61,0,0,1-1.46,1.49,4.82,4.82,0,0,1-2.36.53,5.42,5.42,0,0,1-2.39-.46,3.61,3.61,0,0,1-1.53-1.45A4.86,4.86,0,0,1,58.91,105.92Zm2.64,0a3,3,0,0,0,.47,1.86,1.82,1.82,0,0,0,2.62,0,3.15,3.15,0,0,0,.47-2,2.59,2.59,0,0,0-.49-1.76,1.65,1.65,0,0,0-1.31-.56,1.59,1.59,0,0,0-1.28.57A2.84,2.84,0,0,0,61.55,105.93Z" transform="translate(-3.7 -4.37)"/><path class="cls-194" d="M68.7,107.36l2.5-.16a2.11,2.11,0,0,0,.33.93,1.43,1.43,0,0,0,1.17.52,1.25,1.25,0,0,0,.86-.27.75.75,0,0,0,0-1.2,3.29,3.29,0,0,0-1.35-.5,5.76,5.76,0,0,1-2.47-1A2.1,2.1,0,0,1,69,104a2.18,2.18,0,0,1,.38-1.24,2.53,2.53,0,0,1,1.14-.92,5.43,5.43,0,0,1,2.1-.33,4.24,4.24,0,0,1,2.49.61,2.62,2.62,0,0,1,1,1.93l-2.48.14a1.34,1.34,0,0,0-.42-.83,1.29,1.29,0,0,0-.87-.26,1,1,0,0,0-.69.19.59.59,0,0,0-.24.47.5.5,0,0,0,.19.37,2.15,2.15,0,0,0,.89.31,10.77,10.77,0,0,1,2.47.76,2.56,2.56,0,0,1,1.09.94,2.48,2.48,0,0,1,.34,1.26,2.63,2.63,0,0,1-.46,1.51,2.84,2.84,0,0,1-1.26,1,5.12,5.12,0,0,1-2,.36,4.2,4.2,0,0,1-3-.84A3.26,3.26,0,0,1,68.7,107.36Z" transform="translate(-3.7 -4.37)"/><text class="cls-195" transform="translate(0 7.14)">Bienvenidos al VI concurso de<tspan x="6.15" y="10.32">microcuento y caricatura</tspan></text></svg>