<?xml version="1.0" encoding="utf-8"?>
<!-- Generator: Adobe Illustrator 24.0.2, SVG Export Plug-In . SVG Version: 6.00 Build 0)  -->
<svg version="1.1" id="Layer_1" xmlns="http://www.w3.org/2000/svg" xmlns:xlink="http://www.w3.org/1999/xlink" x="0px" y="0px"
	 viewBox="0 0 48.1 14.2" style="enable-background:new 0 0 48.1 14.2;" xml:space="preserve">
<style type="text/css">
	.st0{fill:#EDEDED;}
	.st1{fill:#55CD6C;}
	.st2{fill:#FEFEFE;}
	.st3{fill:#FFFFFF;}
	.st4{font-family:'HelveticaLTStd-UltraComp';}
	.st5{font-size:8px;}
</style>
<g>
	<path class="st0" d="M1.4,13.4l0.9-3.1C1.7,9.3,1.4,8.2,1.4,7c0-3.4,2.8-6.2,6.3-6.2S14,3.6,14,7s-2.9,6.3-6.3,6.3
		c-1.1,0-2.1-0.3-3.1-0.9L1.4,13.4z"/>
	<path class="st1" d="M4.8,11.4L5,11.5c0.8,0.5,1.7,0.8,2.7,0.8c2.8,0,5.2-2.4,5.2-5.2s-2.4-5.2-5.2-5.2S2.5,4.2,2.5,7
		c0,1,0.3,2,0.8,2.8L3.5,10L3,11.9L4.8,11.4z"/>
	<path class="st2" d="M6,4.1l-0.4,0c-0.1,0-0.3,0-0.3,0.1C5.1,4.4,4.8,4.7,4.7,5.2C4.5,5.8,4.8,6.6,5.3,7.4S7,9.4,8.9,10
		c0.6,0.2,1.1,0.1,1.5-0.2c0.3-0.2,0.5-0.5,0.6-0.8L11,8.7c0-0.1,0-0.2-0.1-0.2L9.5,7.8c-0.1,0-0.2,0-0.3,0.1L8.7,8.6
		c0,0-0.1,0.1-0.2,0C8.2,8.5,6.9,8,6.3,6.7c0-0.1,0-0.1,0-0.2l0.5-0.6c0-0.1,0.1-0.2,0-0.2L6.2,4.3C6.2,4.2,6.1,4.1,6,4.1"/>
</g>
<text transform="matrix(1 0 0 1 15.9598 9.4037)" class="st3 st4 st5">322 821 67 53</text>
</svg>
